Coordinates
version=1
nRows=14
nColumns=63
inDegrees=yes

Units are S.I. units (second, meters, Newtons, ...)
If the header above contains a line with 'inDegrees', this indicates whether rotational values are in degrees (yes) or radians (no).

endheader
time	pelvis_tilt	pelvis_list	pelvis_rotation	pelvis_tx	pelvis_ty	pelvis_tz	hip_flexion_r	hip_adduction_r	hip_rotation_r	knee_angle_r	knee_angle_r_beta	ankle_angle_r	subtalar_angle_r	mtp_angle_r	hip_flexion_l	hip_adduction_l	hip_rotation_l	knee_angle_l	knee_angle_l_beta	ankle_angle_l	subtalar_angle_l	mtp_angle_l	L5_S1_Flex_Ext	L5_S1_Lat_Bending	L5_S1_axial_rotation	L4_L5_Flex_Ext	L4_L5_Lat_Bending	L4_L5_axial_rotation	L3_L4_Flex_Ext	L3_L4_Lat_Bending	L3_L4_axial_rotation	L2_L3_Flex_Ext	L2_L3_Lat_Bending	L2_L3_axial_rotation	L1_L2_Flex_Ext	L1_L2_Lat_Bending	L1_L2_axial_rotation	L1_T12_Flex_Ext	L1_T12_Lat_Bending	L1_T12_axial_rotation	Abs_r3	Abs_r2	Abs_r1	Abs_t1	Abs_t2	neck_flexion	neck_bending	neck_rotation	arm_flex_r	arm_add_r	arm_rot_r	elbow_flex_r	pro_sup_r	wrist_flex_r	wrist_dev_r	arm_flex_l	arm_add_l	arm_rot_l	elbow_flex_l	pro_sup_l	wrist_flex_l	wrist_dev_l
3.932203	6.990959	-2.770991	79.925788	0.248006	1.067423	0.287365	-1.406293	3.642198	-3.992916	11.316175	0.197505	29.578625	14.237098	0.000000	-3.676551	-6.780917	-15.747841	10.340211	0.180471	40.435822	14.482203	0.000000	-0.152792	0.800113	0.416835	-0.283751	1.064150	0.442887	-0.251023	1.945394	0.442887	-0.174626	1.945394	0.364731	-0.141883	1.631590	0.338679	-0.087306	1.239374	0.312626	-1.091380	9.051033	2.318312	0.000000	0.000000	25.648209	-13.131092	0.527782	0.556480	-21.638953	53.214160	31.075349	71.143649	-5.430518	4.424743	1.942250	-20.195364	5.721915	123.554976	78.119835	8.636690	13.612915
3.949153	6.890988	-2.897100	80.355844	0.246993	1.066726	0.288704	-1.229999	3.574939	-4.146110	11.154080	0.194675	29.677877	13.947731	0.000000	-3.334271	-6.734650	-15.312804	10.446736	0.182330	40.245260	14.510661	0.000000	-0.126610	0.809835	0.364470	-0.235128	1.077081	0.387250	-0.208008	1.969034	0.387250	-0.144703	1.969034	0.318912	-0.117570	1.651416	0.296132	-0.072345	1.254435	0.273353	-0.904365	9.161020	2.027075	0.000000	0.000000	25.714910	-12.445995	0.426556	0.768145	-21.572890	52.204172	31.506227	72.511319	-4.737968	3.984487	0.832617	-19.685049	7.128246	118.258960	78.988667	9.710489	15.082665
3.966102	6.770867	-3.107617	80.916422	0.245863	1.065901	0.290239	-0.973472	3.519633	-4.184642	10.934582	0.190844	29.699239	13.327224	0.000000	-2.867648	-6.683719	-14.772388	10.569538	0.184473	40.015511	14.547035	0.000000	-0.090990	0.818430	0.281635	-0.168977	1.088512	0.299237	-0.149487	1.989931	0.299237	-0.103992	1.989931	0.246431	-0.084493	1.668943	0.228829	-0.051992	1.267749	0.211226	-0.649932	9.258247	1.566371	0.000000	0.000000	25.843746	-11.711335	0.382689	1.030719	-21.485487	51.086133	31.996175	74.506597	-3.912642	3.543572	0.170027	-19.089469	8.689344	112.574346	80.095269	10.127631	15.921935
3.983051	6.627531	-3.390418	81.595915	0.244667	1.064944	0.291924	-0.659006	3.475444	-4.025779	10.651134	0.185897	29.627216	12.271939	0.000000	-2.298495	-6.619581	-14.104284	10.704110	0.186822	39.747308	14.546988	0.000000	-0.047566	0.824757	0.169931	-0.088334	1.096927	0.180551	-0.078145	2.005315	0.180551	-0.054363	2.005315	0.148689	-0.044169	1.681845	0.138069	-0.027179	1.277549	0.127448	-0.339756	9.329819	0.945104	0.000000	0.000000	26.028927	-10.939458	0.390051	1.375516	-21.354722	50.053899	32.465317	76.853357	-3.059439	3.113998	-0.032618	-18.417386	10.481461	106.568234	81.421647	9.652852	16.079836
4.000000	6.461077	-3.713878	82.376974	0.243449	1.063856	0.293752	-0.316095	3.433684	-3.672167	10.319270	0.180105	29.488287	10.811678	0.000000	-1.662643	-6.535913	-13.309954	10.853452	0.189428	39.454421	14.486698	0.000000	-0.001070	0.827245	0.034590	-0.001987	1.100236	0.036751	-0.001758	2.011363	0.036751	-0.001223	2.011363	0.030266	-0.000994	1.686918	0.028104	-0.000611	1.281402	0.025942	-0.007643	9.357958	0.192377	0.000000	0.000000	26.259430	-10.105799	0.427167	1.875128	-21.120581	49.616971	32.803236	78.901728	-2.254687	2.664184	0.259608	-17.668958	12.584452	100.324729	82.877021	8.269355	15.696901
4.016949	6.281537	-4.060572	83.247041	0.242221	1.062629	0.295681	0.042259	3.397335	-3.164903	9.960167	0.173838	29.310888	9.028417	0.000000	-0.979918	-6.438934	-12.379075	11.018355	0.192307	39.162446	14.334491	0.000000	0.046794	0.826774	-0.120516	0.086901	1.099610	-0.128048	0.076877	2.010219	-0.128048	0.053481	2.010219	-0.105451	0.043453	1.685958	-0.097919	0.026738	1.280673	-0.090387	0.334243	9.352635	-0.670271	0.000000	0.000000	26.511247	-9.242726	0.497395	2.575417	-20.719037	50.280048	32.934487	80.050604	-1.515436	2.214599	1.009224	-16.862359	15.090423	93.925767	84.468589	6.011779	14.691590
4.033898	6.094427	-4.397064	84.163839	0.241048	1.061292	0.297648	0.381994	3.359264	-2.553711	9.584460	0.167280	29.132664	7.063214	0.000000	-0.302908	-6.332604	-11.430693	11.181718	0.195158	38.902161	14.197142	0.000000	0.092130	0.822689	-0.281994	0.171094	1.094176	-0.299619	0.151360	2.000286	-0.299619	0.105295	2.000286	-0.246745	0.085552	1.677628	-0.229120	0.052643	1.274345	-0.211496	0.658073	9.306423	-1.568368	0.000000	0.000000	26.746218	-8.394889	0.549429	3.501693	-20.114904	52.467690	32.796437	79.453246	-0.936309	1.682159	2.154778	-16.002893	17.943888	87.502137	85.976734	3.275354	13.338415
4.050847	5.902871	-4.706679	85.101189	0.239976	1.059883	0.299549	0.679888	3.320935	-1.802241	9.192026	0.160431	28.947719	4.915384	0.000000	0.339380	-6.209148	-10.425893	11.324875	0.197656	38.681607	13.999580	0.000000	0.133551	0.814882	-0.441396	0.248018	1.083794	-0.468984	0.219412	1.981305	-0.468984	0.152636	1.981305	-0.386222	0.124016	1.661708	-0.358635	0.076311	1.262253	-0.331047	0.953944	9.218113	-2.454915	0.000000	0.000000	26.947957	-7.567565	0.593868	4.590711	-19.302482	55.882265	32.416071	77.299351	-0.468501	1.154241	3.546391	-15.096621	20.988093	81.172803	87.733384	0.260009	11.629107
4.067797	5.704094	-4.979609	86.025623	0.239051	1.058461	0.301319	0.924574	3.273827	-0.944601	8.787958	0.153379	28.762694	2.683477	0.000000	0.925260	-6.064389	-9.425937	11.432912	0.199542	38.513387	13.796184	0.000000	0.169804	0.802352	-0.592079	0.315342	1.067128	-0.629084	0.278971	1.950838	-0.629084	0.194069	1.950838	-0.518069	0.157680	1.636156	-0.481065	0.097026	1.242843	-0.444060	1.212891	9.076363	-3.292968	0.000000	0.000000	27.108248	-6.792135	0.561298	5.816481	-18.305732	60.263240	31.845529	73.579503	-0.074665	0.630614	5.015313	-14.137264	23.968034	75.028765	89.665309	-2.731532	9.623410
4.084746	5.487272	-5.203146	86.915052	0.238302	1.057105	0.302925	1.108431	3.202326	-0.025000	8.389921	0.146432	28.582551	0.444322	0.000000	1.439469	-5.886934	-8.467001	11.504388	0.200789	38.401368	13.624600	0.000000	0.199030	0.783908	-0.726029	0.369618	1.042598	-0.771406	0.326986	1.905994	-0.771406	0.227471	1.905994	-0.635275	0.184819	1.598546	-0.589899	0.113725	1.214274	-0.544522	1.421648	8.867726	-4.037956	0.000000	0.000000	27.232795	-6.112043	0.430898	7.131579	-17.168134	65.212088	31.170792	68.526343	0.293216	0.118066	6.474127	-13.152303	26.906098	69.109618	91.073855	-5.525928	7.285241
4.101695	5.249174	-5.373376	87.744196	0.237746	1.055875	0.304330	1.231167	3.093036	0.801513	8.015648	0.139899	28.448937	-1.557954	0.000000	1.869475	-5.672065	-7.561497	11.534587	0.201317	38.332893	13.488082	0.000000	0.220605	0.759844	-0.835172	0.409686	1.010593	-0.887371	0.362432	1.847485	-0.887371	0.252130	1.847485	-0.730776	0.204854	1.549474	-0.678578	0.126054	1.176998	-0.626379	1.575762	8.595507	-4.644978	0.000000	0.000000	27.325921	-5.554496	0.194626	8.446458	-15.941558	70.180151	30.506478	62.716591	0.649217	-0.332544	7.880304	-12.168338	29.956828	63.510889	91.381587	-8.036885	4.776363
4.118644	4.984738	-5.484275	88.505243	0.237405	1.054811	0.305484	1.276025	2.956751	1.736189	7.651618	0.133546	28.323787	-3.570763	0.000000	2.200685	-5.413165	-6.689486	11.520117	0.201064	38.287825	13.364456	0.000000	0.234208	0.729990	-0.922797	0.434949	0.970886	-0.980471	0.384781	1.774897	-0.980471	0.267677	1.774897	-0.807447	0.217486	1.488595	-0.749772	0.133827	1.130754	-0.692098	1.672928	8.257790	-5.132318	0.000000	0.000000	27.391809	-5.105858	-0.104506	9.782823	-14.651185	75.163815	29.908571	56.076766	1.038899	-0.846472	9.069764	-11.207508	32.782420	58.359460	90.952884	-10.185502	2.277959
4.135593	4.726289	-5.556169	89.199704	0.237198	1.053922	0.306428	1.274076	2.806664	2.416718	7.331747	0.127963	28.270255	-5.137284	0.000000	2.457413	-5.152923	-5.890855	11.481549	0.200391	38.270405	13.296428	0.000000	0.242334	0.700029	-0.977148	0.450039	0.931039	-1.038220	0.398131	1.702051	-1.038220	0.276964	1.702051	-0.855004	0.225032	1.427499	-0.793933	0.138470	1.084345	-0.732861	1.730971	7.918868	-5.434604	0.000000	0.000000	27.448982	-4.802196	-0.477735	10.989861	-13.390095	79.574049	29.530721	49.289550	1.390538	-1.316665	10.124645	-10.264145	35.654838	53.726670	89.475157	-11.697207	0.153016
4.152542	4.466820	-5.581739	89.801101	0.237158	1.053231	0.307172	1.225575	2.648668	3.032205	7.068981	0.123377	28.268415	-6.475912	0.000000	2.618250	-4.879557	-5.148545	11.400567	0.198977	38.252388	13.231325	0.000000	0.244898	0.669481	-0.993620	0.454801	0.890410	-1.055722	0.402343	1.627776	-1.055722	0.279894	1.627776	-0.869418	0.227413	1.365206	-0.807317	0.139935	1.037026	-0.745215	1.749284	7.573304	-5.526218	0.000000	0.000000	27.490366	-4.630336	-0.910745	12.001411	-12.175389	83.146451	29.383077	42.769169	1.715671	-1.643795	11.011490	-9.366594	38.449302	49.672670	87.352786	-12.372663	-1.458525
